<svg id="Layer_2" xmlns="http://www.w3.org/2000/svg" viewBox="0 0 508.8 495.2" fill="#fff" stroke="#fff" class="icon lpanel"><g id="Layer_1-2"><path d="M506.2 285.7l-36.8-159.4c-6-26-21.8-48.2-44.4-62.3-22.7-14.2-49.5-18.6-75.5-12.6L190.1 88.2c-21.9 5.1-40.5 17-53.9 33.1l-14-60.8c-4.9-21.1-20.8-37.9-41.6-43.9L25.5.8C14.9-2.3 3.8 3.9.8 14.5s3.1 21.7 13.7 24.7l55 15.8c6.8 2 12.1 7.5 13.7 14.4l42.3 183.2v.1l21.6 93.6c-6.2 5.4-11.6 11.8-16 18.9-12 19.2-15.8 42-10.7 64.1 5.1 22.1 18.5 40.9 37.8 52.9 13.7 8.5 29.1 12.9 44.9 12.9 6.4 0 12.9-.7 19.3-2.2 22.1-5.1 40.9-18.5 52.9-37.8 3.1-4.9 5.6-10 7.6-15.3l148.5-34.3c26-6 48.2-21.8 62.3-44.4 14.2-22.7 18.6-49.5 12.6-75.5zM213.2 454c-11.7 2.7-23.8.7-33.9-5.7-10.2-6.4-17.3-16.3-20-28-5.6-24.2 9.5-48.4 33.7-53.9 3.4-.8 6.8-1.2 10.1-1.2 20.5 0 39 14.1 43.8 34.9 1.4 6.3 1.5 12.6.3 18.7 0 .2 0 .4-.1.6-1.1 5.1-3 10.1-5.9 14.6-6.4 10.2-16.3 17.3-28 20zm246.4-114c-8.5 13.6-21.8 23.1-37.4 26.7l-135.1 31.2c-.3-2.2-.7-4.5-1.3-6.7-10.5-45.6-56.2-74.2-101.9-63.7h-.2L154 198.9c-7.3-32.1 12.9-64.3 45-71.7l159.4-36.8c15.6-3.6 31.7-.9 45.3 7.6 13.6 8.5 23.1 21.8 26.7 37.4l36.8 159.4c3.6 15.6.9 31.7-7.6 45.3z"></path><path d="M314.7 164.8l-47.8 11c-10.8 2.5-17.5 13.2-15 24 2.1 9.2 10.4 15.5 19.5 15.5s3-.2 4.5-.5l47.8-11c10.8-2.5 17.5-13.2 15-24s-13.2-17.5-24-15z"></path></g></svg>