<svg id="Layer_2" xmlns="http://www.w3.org/2000/svg" viewBox="0 0 423.1 512" fill="#fff" stroke="#fff" class="icon lpanel"><g id="Layer_1-2"><path d="M166.8 220.6c-.1-.7-.3-1.3-.5-2-.2-.6-.4-1.3-.7-1.9l-.9-1.8c-.3-.6-.7-1.2-1-1.8-.4-.6-.8-1.1-1.2-1.6-.4-.5-.9-1-1.4-1.5-.5-.5-1-.9-1.5-1.4-.5-.4-1.1-.8-1.6-1.2-.6-.4-1.2-.7-1.8-1l-1.8-.9c-.6-.3-1.3-.5-1.9-.7-.7-.2-1.3-.4-2-.5-.7-.1-1.4-.2-2-.3-1.4-.1-2.7-.1-4.1 0-.7 0-1.4.2-2 .3-.7.1-1.3.3-2 .5-.6.2-1.3.4-1.9.7l-1.8.9c-.6.3-1.2.7-1.8 1-.6.4-1.1.8-1.6 1.2-.5.4-1 .9-1.5 1.4-.5.5-.9 1-1.4 1.5-.4.5-.8 1.1-1.2 1.6-.4.6-.7 1.2-1 1.8l-.9 1.8c-.3.6-.5 1.3-.7 1.9-.2.7-.4 1.3-.5 2-.1.7-.2 1.4-.3 2 0 .7-.1 1.4-.1 2.1s0 1.4.1 2.1c0 .7.2 1.4.3 2 .1.7.3 1.3.5 2 .2.6.4 1.3.7 1.9l.9 1.8c.3.6.7 1.2 1 1.8.4.6.8 1.1 1.2 1.6.4.5.9 1 1.4 1.5.5.5 1 .9 1.5 1.4.5.4 1.1.8 1.6 1.2.6.4 1.2.7 1.8 1l1.8.9c.6.3 1.3.5 1.9.7.7.2 1.3.4 2 .5.7.1 1.4.2 2 .3.7 0 1.4.1 2.1.1s1.4 0 2.1-.1c.7 0 1.4-.2 2-.3.7-.1 1.3-.3 2-.5.6-.2 1.3-.4 1.9-.7l1.8-.9c.6-.3 1.2-.7 1.8-1 .6-.4 1.1-.8 1.6-1.2.5-.4 1-.9 1.5-1.4.5-.5.9-1 1.4-1.5.4-.5.8-1.1 1.2-1.6.4-.6.7-1.2 1-1.8l.9-1.8c.3-.6.5-1.3.7-1.9.2-.7.4-1.3.5-2 .1-.7.2-1.4.3-2 0-.7.1-1.4.1-2.1s0-1.4-.1-2.1c0-.7-.2-1.4-.3-2zM297.2 220.6c-.1-.7-.3-1.3-.5-2-.2-.6-.4-1.3-.7-1.9l-.9-1.8c-.3-.6-.7-1.2-1-1.8-.4-.6-.8-1.1-1.2-1.6-.4-.5-.9-1-1.4-1.5-.5-.5-1-.9-1.5-1.4-.5-.4-1.1-.8-1.6-1.2-.6-.4-1.2-.7-1.8-1l-1.8-.9c-.6-.3-1.3-.5-1.9-.7-.7-.2-1.3-.4-2-.5-.7-.1-1.4-.2-2-.3-1.4-.1-2.7-.1-4.1 0-.7 0-1.4.2-2 .3-.7.1-1.3.3-2 .5-.6.2-1.3.4-1.9.7l-1.8.9c-.6.3-1.2.7-1.8 1-.6.4-1.1.8-1.6 1.2-.5.4-1 .9-1.5 1.4-.5.5-.9 1-1.4 1.5-.4.5-.8 1.1-1.2 1.6-.4.6-.7 1.2-1 1.8l-.9 1.8c-.3.6-.5 1.3-.7 1.9-.2.7-.4 1.3-.5 2-.1.7-.2 1.4-.3 2 0 .7-.1 1.4-.1 2.1s0 1.4.1 2.1c0 .7.2 1.4.3 2 .1.7.3 1.3.5 2 .2.6.4 1.3.7 1.9l.9 1.8c.3.6.7 1.2 1 1.8.4.6.8 1.1 1.2 1.6.4.5.9 1 1.4 1.5s1 .9 1.5 1.4c.5.4 1.1.8 1.6 1.2.6.4 1.2.7 1.8 1l1.8.9c.6.3 1.3.5 1.9.7.7.2 1.3.4 2 .5.7.1 1.4.2 2 .3.7 0 1.4.1 2.1.1s1.4 0 2.1-.1c.7 0 1.4-.2 2-.3.7-.1 1.3-.3 2-.5.6-.2 1.3-.4 1.9-.7l1.8-.9c.6-.3 1.2-.7 1.8-1 .6-.4 1.1-.8 1.6-1.2.5-.4 1-.9 1.5-1.4.5-.5.9-1 1.4-1.5.4-.5.8-1.1 1.2-1.6.4-.6.7-1.2 1-1.8l.9-1.8c.3-.6.5-1.3.7-1.9.2-.7.4-1.3.5-2 .1-.7.2-1.4.3-2 0-.7.1-1.4.1-2.1s0-1.4-.1-2.1c0-.7-.2-1.4-.3-2z"></path><path d="M422.5 423.3v-.2l-31.6-246.7c-4.7-40-38.7-70.2-79-70.2H308v-9.7c0-25.7-10-50-28.2-68.2C261.5 10 237.3 0 211.5 0c-53.2 0-96.4 43.2-96.4 96.4v9.7h-3.9c-40.3 0-74.3 30.2-79 70.2L.6 423v.2c-2.6 22.5 4.5 45.1 19.6 62.1s36.7 26.6 59.4 26.6h264c22.7 0 44.3-9.7 59.4-26.6 15.1-16.9 22.2-39.6 19.6-62.1zM155.1 96.4c0-31.1 25.3-56.4 56.4-56.4s29.2 5.9 39.9 16.5c10.7 10.7 16.5 24.8 16.5 39.9v9.7H155.1v-9.7zM373 458.7c-7.6 8.5-18.1 13.2-29.5 13.2h-264c-11.4 0-21.9-4.7-29.5-13.2-7.6-8.5-11-19.4-9.8-30.8l31.6-246.7v-.2c2.3-19.9 19.2-35 39.3-35h200.7c20.1 0 37 15 39.3 35v.2l31.6 246.7c1.3 11.3-2.2 22.2-9.8 30.8z"></path></g></svg>