<svg id="Layer_2" xmlns="http://www.w3.org/2000/svg" viewBox="0 0 512 484.4" fill="#fff" stroke="#fff" class="icon lpanel"><g id="Layer_1-2"><path d="M497.2 95.7c-12.8-15.9-31.9-25.1-52.3-25.1h-202c-11 0-20 9-20 20s9 20 20 20h202c8.3 0 16 3.7 21.2 10.1 5.2 6.4 7.1 14.8 5.3 22.8l-34.5 156c-5.2 23.4-25.5 39.7-49.5 39.7H210.2c-24.4 0-45.7-17.4-50.6-41.3L108 44.4C102.7 18.7 79.9 0 53.6 0H20C9 0 0 9 0 20s9 20 20 20h33.6c7.3 0 13.7 5.2 15.1 12.4l51.7 253.7c8.7 42.5 46.4 73.3 89.8 73.3h177.2c20.6 0 40.7-7.1 56.8-20 16-12.9 27.3-31 31.7-51.1l34.5-156c4.4-20-.4-40.6-13.2-56.5z"></path><circle cx="182.8" cy="450.5" r="33.9"></circle><path d="M414.8 416.6c-18.7 0-33.9 15.2-33.9 33.9s15.2 33.9 33.9 33.9 33.9-15.2 33.9-33.9-15.2-33.9-33.9-33.9z"></path></g></svg>